<?xml version="1.0" ?><!DOCTYPE svg  PUBLIC '-//W3C//DTD SVG 1.1//EN'  'http://www.w3.org/Graphics/SVG/1.1/DTD/svg11.dtd'><svg enable-background="new 0 0 512 512" height="512px" id="Layer_1" version="1.1" viewBox="0 0 512 512" width="512px" xml:space="preserve" xmlns="http://www.w3.org/2000/svg" xmlns:xlink="http://www.w3.org/1999/xlink"><g><path clip-rule="evenodd" d="M510.288,256c0,140.443-113.848,254.288-254.288,254.288   C115.56,510.288,1.712,396.443,1.712,256C1.712,115.563,115.56,1.712,256,1.712C396.44,1.712,510.288,115.563,510.288,256z" fill="#004972" fill-rule="evenodd"/><path d="M446.864,349.192c3.008-23.412,5.032-47.045,16.159-68.718c5.425-10.568,3.19-13.906-8.312-17.301   c-1.925-0.565-3.932-1.027-5.694-1.932c-4.566-2.345-9.019-4.904-13.63-7.442c8.888-5.07,10.133-5.215,19.576-0.407   c4.47,2.276,8.809,2.945,12.199-1.041c3.435-4.036,5.901-9.119,1.793-14.003c-13.017-15.486-17.255-34.111-19.173-53.412   c-2.956-29.758-6.032-59.509-7.174-89.432c-0.158-4.057-0.09-8.078,0.145-12.065c-29.958-32.406-68.234-57.005-111.45-70.387   c-2.425,1.766-4.743,3.704-6.937,5.856c-4.252,4.187-7.591,8.946-8.356,14.927c-0.479,3.719-2.187,4.643-5.646,4.974   c-5.525,0.531-11.168,0.587-16.51,2.429c-2.836,0.979-4.091,0.048-4.404-2.953c-0.542-5.166-3.087-9.602-5.07-14.319   c-2.531-6.016-2.539-14.059,0.604-19.197c0.269-0.441,0.5-0.876,0.748-1.317c-9.754-1.132-19.669-1.739-29.73-1.739   c-4.614,0-9.194,0.132-13.751,0.373c0.545,4.263,4.456,7.222,10.051,7.588c3.56,0.228,7.136,0.255,10.698,0.441   c0.324,0.021,0.621,0.559,0.959,0.883c0.065,2.463-1.952,2.332-3.272,2.18c-10.113-1.166-15.804,6.091-22.129,11.775   c-3.395,3.049-4.843,7.539-4.563,12.223c0.255,4.291-1.569,4.78-5.267,3.821c-7.149-1.855-14.393-2.896-21.828-1.372   c-4.881,1-8.154-0.228-8.564-6.194c-0.311-4.512-2.47-8.664-5.746-11.872c-3.362-3.29-6.877-6.249-10.522-8.912   C138.178,25.959,99.319,50.819,69.012,83.688c0.314,6.284,0.259,12.609-0.12,18.962c-1.449,24.288-3.449,48.527-6.133,72.712   c-1.159,10.43-2.121,20.874-4.436,31.124c-2.394,10.609-6.915,20.246-13.53,28.916c-5.053,6.622-5.181,11.692-0.417,16.824   c4.456,4.802,9.122,2.856,13.985,0.324c6.905-3.587,8.212-3.394,18.353,0.621c-7.002,4.456-13.638,8.554-21.474,10.623   c-9.123,2.407-11.523,6.346-7.415,14.679c15.134,30.724,16.127,64.221,19.776,97.187c2.11,19.059,4.384,38.118,5.756,57.253   c8.396,8.664,17.394,16.728,26.937,24.129c-2.669-13.864-4.959-27.812-7.025-41.788c-4.373-29.571-7.739-59.295-11.485-88.963   c-1.428-11.285-2.797-22.584-3.959-33.897c-0.869-8.456,2.173-14.996,9.354-20.121c8.716-6.222,8.257-12.43-0.531-18.252   c-1.155-0.759-3.601-1.049-2.272-3.201c4.611-7.456,1.241-15.017-0.225-22.143c-3.859-18.762-1.407-37.373-0.203-56.046   c1.031-16.045,2.052-32.09,3.214-48.12c1.276-17.583,2.528-35.173,4.167-52.729c0.703-7.554,4.308-13.596,11.916-16.424   c2.811-1.042,5.322-2.663,6.784-5.229c2.111-3.705,3.56-3.312,6.284-0.339c8.957,9.761,17.093,20.08,23.715,31.565   c1.225,2.125,2.084,4.318,2.812,6.705c1.831,6.043-0.155,9.712-5.08,13.479c-8.826,6.753-15.524,15.452-18.891,26.281   c-3.087,9.934-1.718,19.425,5.528,26.854c4.67,4.787,3.463,7.519,0.08,12.168c-7.626,10.484-10.83,22.019-4.474,34.531   c0.403,0.793,0.725,1.779,1.387,2.276c7.964,5.953,5.925,11.175,1.138,18.97c-12.841,20.894-3.635,41.491,20.346,47.127   c6.943,1.635,7.646,3.67,5.232,10.126c-7.608,20.35,4.149,38.566,25.736,41.271c24.305,3.035,45.517-5.566,64.852-18.61   c12.247-8.264,24.871-4.753,37.48-4.904c3.355-0.042,5.173,3.146,4.701,6.897c-0.452,3.594-2.704,4.911-6.022,4.919   c-8.274,0.034-16.548-0.008-24.822,0.068c-7.698,0.062-11.816,3.132-11.923,8.74c-0.104,5.573,5.308,11.492,11.558,11.857   c6.908,0.4,13.857,0.104,20.787,0.228c3.004,0.056,7.163-0.738,7.201,3.787c0.038,4.532-3.99,4.69-7.437,4.725   c-6.263,0.062-12.526-0.021-18.786,0.049c-7.437,0.09-11.33,2.891-11.695,8.257c-0.332,4.843,5.38,10.878,11.364,11.319   c5.787,0.421,11.619,0.159,17.435,0.241c1.069,0.015,2.283-0.11,2.952,1.249c-0.145,2.387-2.135,1.759-3.47,1.786   c-5.366,0.132-10.736-0.027-16.1,0.159c-5.536,0.2-9.022,3.387-9.168,8.747c-0.145,5.456,3.521,8.573,8.83,9.181   c3.535,0.414,7.143,0.145,10.719,0.27c1.26,0.048,2.987-0.062,2.85,1.869c-0.101,1.4-1.573,1.379-2.649,1.462   c-3.331,0.241-6.705-0.124-9.953,1.083c-4.588,1.697-7.02,4.884-6.25,9.768c0.714,4.512,3.704,7.099,8.333,7.229   c5.359,0.145,10.757,0.331,16.089-0.083c8.34-0.655,13.617-7.519,13.545-17.797c-0.031-4.787,0.045-9.029,3.556-12.968   c1.766-1.98,3.121-5.561,2.673-8.058c-1.432-7.96,1.321-14.616,4.453-21.556c2.283-5.05,1.538-10.789-0.646-15.693   c-2.559-5.753,1.853-8.753,3.929-12.582c1.169-2.166,3.625-0.737,5.442,0.069c10.278,4.56,20.942,7.691,32.162,8.857   c9.315,0.965,18.328-0.18,26.698-4.436c13.986-7.112,19.181-21.48,13.155-37.809c-2.19-5.945-1.918-8.146,4.99-9.671   c25.261-5.58,34.079-28.344,19.346-49.804c-3.715-5.414-5.28-8.36,0.406-14.01c9.837-9.774,9.199-25.226-0.703-38.718   c-3.725-5.07-4.708-7.961,0.193-13.21c8.75-9.389,8.671-22.446,1.39-34.945c-4.566-7.829-10.561-14.424-17.786-19.853   c-2.805-2.11-4.177-4.249-2.977-7.953c0.731-2.256,1.138-5.139,0.369-7.264c-3.818-10.582,2.435-17.479,8.615-24.219   c3.346-3.649,7.45-11.533,10.623-9.54c6.767,4.242,16.486,6.222,18.859,15.845c1.169,4.753,2.286,9.595,2.624,14.458   c2.028,28.951,3.784,57.916,5.712,86.881c0.655,9.795,1.49,19.583,2.324,29.364c1.066,12.389-1.1,24.495-2.955,36.636   c-0.435,2.862-1.566,5.897-1.035,8.588c1.362,6.85,0.652,11.691-5.767,16.541c-4.639,3.511-0.779,9.919,3.238,12.485   c11.558,7.395,11.6,17.853,10.033,29.53c-3.949,29.413-7.777,58.847-11.213,88.329c-2.711,23.253-6.604,46.258-11.516,69.062   c9.664-7.401,18.783-15.486,27.285-24.171c0.428-4.483,0.886-8.953,1.352-13.43C441.574,396.65,443.815,372.866,446.864,349.192z    M196.208,59.587c0.586-2.062,2.1-3.415,4.211-3.933c8.815-2.173,17.693-2.759,26.426,0.09c7.209,2.353,8.729,6.96,4.67,13.472   c-3.245,5.208-7.812,9.175-12.95,12.431c-10.665,6.767-22.088,11.43-36.073,12.562C187.927,82.15,192.915,71.196,196.208,59.587z    M139.389,129.359c3.932-6.904,9.626-12.243,16.138-16.755c1.987-1.38,3.453-1.4,5.246,0.387c3.945,3.918,7.978,3.441,11.699-0.4   c2.749-2.842,6.367-3.187,9.885-3.4c14.823-0.883,28.54-5.388,40.978-13.258c6.198-3.919,10.596-1.235,15.104,2.2   c4.58,3.483,3.993,8.098,1.89,12.72c-2.952,6.484-7.819,11.479-13.358,15.672c-18.514,14.01-39.38,21.604-62.654,22.219   c-6.557,0.097-12.999-0.269-19.114-2.849C137.14,142.486,135.057,136.962,139.389,129.359z M137.25,184.116   c3.077-10.761,11.8-16.342,22.895-15.824c24.668,1.152,47.027-6.532,68.08-18.783c6.494-3.78,12.444-0.2,12.52,7.374   c0.024,2.56-0.779,4.829-1.969,7.016c-2.267,4.166-5.188,7.843-8.774,10.926c-19.4,16.687-42.22,24.522-67.804,26.054   c-6.592-0.648-13.514-1.021-19.825-4.394C137.234,193.732,135.685,189.593,137.25,184.116z M152.406,251.924   c-3.397-0.421-6.566-1.353-9.54-2.932c-6.118-3.256-7.57-7.374-5.07-13.962c4.029-10.596,10.769-14.796,27.523-14.617   c18.597-0.441,39.688-6.339,59.13-17.748c4.914-2.884,9.309-4.649,13.74-0.027c4.329,4.511,2.839,9.464,0.19,14.202   c-4.395,7.851-11.172,13.341-18.607,17.997C199.174,247.743,177.086,254.938,152.406,251.924z M246.784,271.038   c-17.948,17.459-38.404,29.744-64.195,30.834c-2.873,0.117-5.847-0.097-8.654-0.704c-6.946-1.504-9.543-5.891-7.949-12.81   c2.845-12.354,6.994-15.913,19.211-18.424c18.579-3.815,35.776-11.044,51.069-22.467c1.41-1.056,2.858-2.062,5.149-3.712   c1.541,7.954,2.959,14.935,6.436,21.246C249.126,267.319,248.591,269.279,246.784,271.038z M290.417,61.497   c1.524-5.463,7.188-6.091,11.958-7.153c1.935-0.428,3.99-0.289,7.663-0.51c5.26-1.428,7.819,2.131,9.216,8.401   c1.942,8.719,6.008,16.748,9.564,24.923c0.562,1.29,2.014,2.821,0.493,4.249c-1.146,1.083-2.524,0.068-3.76-0.311   c-11.265-3.436-21.432-8.788-29.686-17.335C292.58,70.361,289.051,66.409,290.417,61.497z M357.901,295.367   c-1.628,3.621-4.839,5.256-8.45,5.891c-3.283,0.579-6.664,0.579-10.706,0.89c-24.032-2.531-44.271-13.837-61.644-31.013   c-2.391-2.366-2.06-4.656-0.642-7.25c2.711-4.96,4.273-10.348,5.053-15.887c0.486-3.441,1.187-4.614,4.346-2.069   c17.321,13.996,37.525,21.273,59.133,25.295C352.527,272.624,360.981,288.524,357.901,295.367z M376.863,250.605   c-5.101,1.477-10.491,1.96-14.096,2.594c-27.185-1.807-50.283-9.567-69.611-26.799c-4.197-3.738-7.75-8.16-9.516-13.596   c-1.308-4.028-0.997-7.994,2.767-10.905c3.572-2.767,6.911-2.814,11.009-0.394c22.439,13.251,46.541,20.253,72.847,18.556   c5.684-0.365,15.379,10.251,16.669,17.914C387.983,244.239,385.144,248.212,376.863,250.605z M380.167,197.14   c-5.994,2.808-12.476,3.2-18.731,3.738c-25.475-1.559-48.279-9.443-67.659-26.108c-4.101-3.525-7.484-7.712-9.574-12.769   c-1.828-4.436-1.949-8.678,1.9-12.306c3.824-3.607,7.194-1.628,10.837,0.518c19.203,11.285,39.866,17.775,62.229,18.459   c1.328,0.041,2.67-0.104,3.994-0.221c11.558-1.062,18.376,3.11,22.732,13.934C388.735,189.441,387.028,193.918,380.167,197.14z    M384.765,129.85c3.766,7.525,1.759,12.686-6.057,16.018c-6.329,2.703-13.014,2.959-19.794,2.896   c-23.701-0.979-44.951-8.705-63.521-23.55c-5.267-4.207-9.777-9.126-12.371-15.575c-1.907-4.753-1.4-8.851,2.925-11.851   c4.215-2.925,8.284-5.898,13.954-2.173c9.81,6.436,20.726,10.381,32.283,12.499c4.152,0.759,7.884,1.689,11.029,5.332   c3.321,3.842,7.93,3.035,11.013-0.925c3.949-5.062,7.806-4.855,12.579-1.311C373.845,116.454,380.726,121.793,384.765,129.85z" fill="#EDEDED"/><path d="M370.51,375.922c-19.929-18.486-44.641-18.211-65.693,0.524c-8.194,7.291-16.017,14.927-23.381,23.073   c-13.938,15.403-22.994,15.604-37.332,0.566c-9.264-9.72-18.272-19.681-29.209-27.564c-22.723-16.383-50.787-11.803-67.339,10.954   c-9.194,12.644-15.686,26.102-11.581,42.408c1.838,7.312,5.69,13.555,10.232,19.432c1.915,2.477,4.181,4.719,5.84,7.347   c7.246,11.506,14.692,22.653,25.36,31.579c5.129,4.29,7.998,10.374,10.195,16.728c7.708,2.152,15.559,3.952,23.543,5.374   c0.958-1.366,2.187-2.373,3.928-2.139c3.681,0.511,6.777,2.152,9.675,4.173c10.24,1.256,20.67,1.911,31.251,1.911   c16.855,0,33.324-1.655,49.263-4.787c0.679-0.4,1.386-0.766,2.169-1.049c1.069-0.386,2.418-0.421,3.828-0.207   c8.94-1.979,17.711-4.414,26.271-7.312c2.118-8.54,6.388-15.459,14.089-21.177c12.358-9.168,23.681-19.791,32.445-32.725   c7.17-10.595,9.847-21.584,5.087-34.207C384.617,396.809,380.174,384.89,370.51,375.922z M296.95,491.753   c-9.685,5.877-20.273,7.905-30.982,7.16c-15.834,0.4-30.085-3.346-43.247-11.258c-10.126-6.077-16.082-18.527-13.658-28.213   c1.798-7.181,6.653-11.52,13.079-14.195c5.439-2.276,9.446,0.421,12.654,4.731c5.46,7.34,10.781,14.775,17.483,21.115   c7.426,7.021,13.502,7.181,20.729-0.228c6.384-6.547,12.389-13.458,18.783-19.998c3.09-3.152,6.557-6.828,11.626-4.117   c5.788,3.09,11.275,6.684,11.037,14.526C314.05,474.577,308.37,484.82,296.95,491.753z" fill="#EDEDED"/></g></svg>