<svg viewBox="0 0 70 70" version="1.1" xmlns="http://www.w3.org/2000/svg" xmlns:xlink="http://www.w3.org/1999/xlink">
    <title>penguin 2</title>
    <desc>Created with Sketch.</desc>
    <path d="M52.6486892,61.36375 L55.4166051,61.36375 C56.9595213,61.36375 58.2195209,62.62375 58.2195209,64.1666667 C58.2195209,65.7095833 56.9595213,66.9695833 55.4166051,66.9695833 L55.3932717,66.9695833 C55.3932717,67.0104167 55.4166051,67.0425 55.4166051,67.0833333 C55.4166051,68.69625 54.1157721,70 52.4999392,70 C44.9224414,70 39.4595262,69.4575 36.2657771,68.39 C35.7903606,68.2325 35.376194,68.0604167 34.9999441,67.8795833 C34.6266109,68.0604167 34.2095277,68.2325 33.7341112,68.39 C30.5345287,69.4575 25.0716136,70 17.4999491,70 C15.8899495,70 14.5832832,68.69625 14.5832832,67.0833333 C14.5832832,67.0425 14.6036999,67.0104167 14.6066166,66.9695833 L14.5832832,66.9695833 C13.0345337,66.9695833 11.7803673,65.7095833 11.7803673,64.1666667 C11.7803673,62.62375 13.0345337,61.36375 14.5832832,61.36375 L17.3511991,61.36375 C13.3757836,57.9454167 10.7653676,53.1154167 9.34786803,47.1975 C8.46703495,47.7429167 3.80911959,50.3358333 0.00578732966,47.59125 C-0.207129277,44.8058333 5.53286911,40.5504167 8.34745165,33.0691667 C8.34745165,33.0779167 8.35036831,33.08375 8.35036831,33.0925 C9.09120144,30.2370833 10.8674509,25.4741667 11.0395342,24.0683333 C11.0395342,7.48708333 24.2053639,0 34.9999441,0 C45.7945244,0 58.9603541,7.48708333 58.9603541,24.0683333 C59.135354,25.4741667 60.9086869,30.24 61.6524366,33.0983333 C61.65827,33.0895833 61.65827,33.0808333 61.65827,33.0691667 C64.4728525,40.5475 70.2099342,44.8029167 69.994101,47.59125 C66.187852,50.3358333 61.5328533,47.74 60.6520203,47.1975 C59.2432707,53.1154167 56.6241047,57.9454167 52.6486892,61.36375 L52.6486892,61.36375 Z" fill="#303048"></path>
    <path d="M51.1903563,29.5166667 C51.1903563,29.5166667 56.3645215,10.1004167 41.7491089,10.1004167 C38.6341098,10.1004167 36.2220271,13.5595833 35.0057775,13.5595833 C33.7895278,13.5595833 31.8966117,10.1004167 28.2595294,10.1004167 C13.6412002,10.1004167 18.8153654,29.5166667 18.8153654,29.5166667 C18.8153654,29.5166667 16.1174495,32.9495833 16.1174495,40.1070833 C16.1174495,54.9995833 26.4978632,59.0333333 35.0057775,59.0333333 C43.5136918,59.0333333 53.8941055,54.9995833 53.8941055,40.1070833 C53.8941055,32.9495833 51.1903563,29.5166667 51.1903563,29.5166667 Z" fill="#FFFFFF"></path>
    <path d="M32.0832783,23.3333333 C32.0832783,21.7233333 30.776612,20.4166667 29.1666125,20.4166667 C27.5566129,20.4166667 26.2499466,21.7233333 26.2499466,23.3333333 C26.2499466,24.9433333 27.5566129,26.25 29.1666125,26.25 C30.776612,26.25 32.0832783,24.9433333 32.0832783,23.3333333 L32.0832783,23.3333333 Z" fill="#303048"></path>
    <path d="M43.7499417,23.3333333 C43.7499417,24.9433333 42.4491087,26.25 40.8332758,26.25 C39.2203596,26.25 37.91661,24.9433333 37.91661,23.3333333 C37.91661,21.7233333 39.2203596,20.4166667 40.8332758,20.4166667 C42.4491087,20.4166667 43.7499417,21.7233333 43.7499417,23.3333333 L43.7499417,23.3333333 Z" fill="#303048"></path>
    <path d="M29.5875838,28.8534934 C31.2799714,33.2731407 35.3051095,34.3051541 35.3051095,34.3051541 C35.3051095,34.3051541 39.3302476,33.2731407 41.0226352,28.8534934 C37.7407755,27.9043841 35.3051095,26.1290924 35.3051095,26.1290924 C35.3051095,26.1290924 32.8723023,27.9043841 29.5875838,28.8534934 L29.5875838,28.8534934 Z" fill="#F15A40"></path>
</svg>